<svg xmlns="http://www.w3.org/2000/svg" viewBox="0 0 64 64"><rect width="64" height="64" rx="13.12" fill="#dcf89c"/><g transform="translate(14.654 32.973) scale(1)"><path d="M1.05 0.00H11.09Q15.10 0.00 16.58 -2.15Q18.06 -4.30 18.06 -9.61Q18.06 -14.92 16.59 -17.06Q15.11 -19.20 11.09 -19.20H1.05Z M6.33 -3.60V-15.59H9.63Q11.26 -15.59 12.02 -14.71Q12.77 -13.83 12.77 -9.61Q12.77 -5.39 12.02 -4.49Q11.26 -3.60 9.63 -3.60Z M19.84 0.00H33.66V-3.60H25.14V-7.98H33.02V-11.42H25.14V-15.59H33.66V-19.20H19.84Z" fill="#17231c"/></g><g transform="translate(13.794 53.323) scale(1)"><path d="M1.91 0.00H8.34V-14.88H8.39L14.29 -0.42H22.11L28.01 -14.88H28.07V0.00H34.50V-19.20H23.95L18.22 -4.84H18.18L12.45 -19.20H1.91Z" fill="#17231c"/></g><g transform="translate(2.637 41.125) scale(1.45)"><path d="M23.82 -19.79H26.19L29.59 -22.89H26.10Z" fill="#526f3c"/></g></svg>