<svg xmlns="http://www.w3.org/2000/svg" viewBox="0 0 319.11 64.00" width="319.11" height="64.00"><rect width="64" height="64" rx="14.08" fill="#17231c"/><g transform="translate(17.62 52.80)" fill="#edf0e7"><path d="M3.10 0.00V-27.94H25.41V-22.94H9.20V-16.72H23.53V-11.78H9.20V-5.00H25.66V0.00Z"/></g><g transform="translate(24.08 11.20)" fill="#dcf89c"><g transform="translate(-20.62 62.59) scale(0.7180)"><path d="M28.71 -73.95 37.05 -87.17H51.91L52.03 -86.85L40.10 -73.95Z"/></g></g><g transform="translate(89.60 44.73)"><path d="M3.02 0.00V-25.46H12.86Q16.79 -25.46 19.57 -24.11Q22.36 -22.75 23.85 -19.95Q25.34 -17.15 25.34 -12.73Q25.34 -8.36 23.85 -5.54Q22.36 -2.72 19.57 -1.36Q16.79 0.00 12.86 0.00Z M7.16 -3.55H12.82Q14.77 -3.55 16.31 -4.08Q17.84 -4.60 18.90 -5.67Q19.96 -6.74 20.51 -8.40Q21.07 -10.06 21.07 -12.31V-13.09Q21.07 -15.40 20.51 -17.06Q19.96 -18.72 18.90 -19.79Q17.85 -20.86 16.32 -21.39Q14.78 -21.91 12.82 -21.91H7.16Z M33.76 0.45Q32.82 0.45 31.74 0.21Q30.67 -0.02 29.72 -0.60Q28.77 -1.18 28.18 -2.25Q27.59 -3.32 27.59 -5.00Q27.59 -7.02 28.52 -8.32Q29.44 -9.63 31.12 -10.37Q32.79 -11.11 35.10 -11.41Q37.42 -11.71 40.15 -11.71V-13.63Q40.15 -14.60 39.83 -15.33Q39.52 -16.06 38.69 -16.47Q37.87 -16.89 36.30 -16.89Q34.75 -16.89 33.87 -16.50Q32.99 -16.12 32.64 -15.53Q32.29 -14.95 32.29 -14.28V-13.73H28.56Q28.53 -13.92 28.53 -14.11Q28.53 -14.29 28.53 -14.55Q28.53 -16.28 29.52 -17.50Q30.51 -18.72 32.29 -19.34Q34.07 -19.97 36.40 -19.97Q38.95 -19.97 40.63 -19.25Q42.31 -18.53 43.16 -17.20Q44.01 -15.87 44.01 -13.96V-4.03Q44.01 -3.33 44.38 -3.04Q44.74 -2.75 45.22 -2.75H46.55V-0.14Q46.10 0.05 45.43 0.23Q44.76 0.41 43.86 0.41Q42.89 0.41 42.20 0.06Q41.51 -0.29 41.08 -0.94Q40.66 -1.58 40.49 -2.43H40.26Q39.60 -1.57 38.65 -0.91Q37.70 -0.26 36.48 0.09Q35.26 0.45 33.76 0.45Z M34.84 -2.75Q35.99 -2.75 36.96 -3.11Q37.94 -3.47 38.64 -4.10Q39.34 -4.74 39.75 -5.66Q40.15 -6.57 40.15 -7.65V-8.94Q37.61 -8.94 35.67 -8.64Q33.73 -8.34 32.65 -7.55Q31.58 -6.77 31.58 -5.33Q31.58 -4.50 31.96 -3.92Q32.35 -3.34 33.08 -3.05Q33.82 -2.75 34.84 -2.75Z M53.49 0.00 46.26 -19.53H50.31L53.68 -10.22Q53.92 -9.55 54.24 -8.50Q54.57 -7.44 54.91 -6.32Q55.25 -5.21 55.48 -4.32H55.67Q55.91 -5.15 56.22 -6.25Q56.54 -7.35 56.88 -8.43Q57.22 -9.50 57.48 -10.22L60.81 -19.53H64.73L57.46 0.00Z M66.74 -22.89V-26.84H70.60V-22.89Z M66.74 0.00V-19.53H70.60V0.00Z M81.48 0.45Q79.08 0.45 77.34 -0.63Q75.60 -1.71 74.67 -3.98Q73.73 -6.25 73.73 -9.85Q73.73 -13.35 74.69 -15.59Q75.64 -17.82 77.35 -18.89Q79.07 -19.97 81.28 -19.97Q82.60 -19.97 83.71 -19.67Q84.82 -19.38 85.69 -18.75Q86.55 -18.12 87.17 -17.16H87.41V-26.84H91.27V0.00H88.11L87.77 -2.69H87.51Q86.54 -1.11 84.95 -0.33Q83.36 0.45 81.48 0.45Z M82.55 -2.89Q84.27 -2.89 85.33 -3.66Q86.40 -4.43 86.90 -5.89Q87.41 -7.35 87.41 -9.46V-10.00Q87.41 -11.76 87.07 -13.03Q86.73 -14.29 86.10 -15.09Q85.48 -15.88 84.59 -16.26Q83.71 -16.63 82.61 -16.63Q80.87 -16.63 79.79 -15.94Q78.72 -15.25 78.22 -13.80Q77.73 -12.34 77.73 -10.07V-9.40Q77.73 -7.11 78.24 -5.67Q78.75 -4.23 79.82 -3.56Q80.88 -2.89 82.55 -2.89Z M102.76 0.00V-25.46H122.48V-21.91H106.90V-14.80H120.85V-11.25H106.90V-3.55H122.71V0.00Z M133.63 0.45Q131.58 0.45 130.02 0.01Q128.47 -0.43 127.42 -1.22Q126.38 -2.02 125.85 -3.11Q125.33 -4.20 125.33 -5.53Q125.33 -5.71 125.34 -5.87Q125.36 -6.02 125.37 -6.12H129.17Q129.16 -6.01 129.16 -5.91Q129.16 -5.82 129.16 -5.73Q129.19 -4.57 129.82 -3.89Q130.44 -3.20 131.50 -2.92Q132.56 -2.64 133.82 -2.64Q134.93 -2.64 135.88 -2.91Q136.83 -3.17 137.44 -3.74Q138.04 -4.30 138.04 -5.17Q138.04 -6.28 137.26 -6.87Q136.48 -7.45 135.23 -7.81Q133.98 -8.17 132.58 -8.56Q131.37 -8.89 130.17 -9.29Q128.97 -9.70 128.00 -10.32Q127.04 -10.93 126.44 -11.91Q125.85 -12.88 125.85 -14.34Q125.85 -15.71 126.43 -16.75Q127.02 -17.79 128.07 -18.50Q129.13 -19.21 130.60 -19.58Q132.06 -19.94 133.83 -19.94Q135.64 -19.94 137.05 -19.55Q138.46 -19.15 139.44 -18.44Q140.43 -17.73 140.94 -16.76Q141.45 -15.79 141.45 -14.65Q141.45 -14.43 141.44 -14.20Q141.43 -13.96 141.42 -13.89H137.64V-14.23Q137.64 -14.96 137.23 -15.55Q136.82 -16.14 135.95 -16.51Q135.08 -16.89 133.63 -16.89Q132.65 -16.89 131.92 -16.72Q131.19 -16.55 130.71 -16.25Q130.24 -15.95 129.99 -15.55Q129.74 -15.14 129.74 -14.62Q129.74 -13.78 130.35 -13.31Q130.95 -12.85 131.95 -12.53Q132.96 -12.22 134.13 -11.86Q135.44 -11.48 136.82 -11.08Q138.20 -10.69 139.37 -10.09Q140.54 -9.50 141.26 -8.45Q141.97 -7.41 141.97 -5.69Q141.97 -4.07 141.35 -2.89Q140.72 -1.72 139.60 -0.98Q138.47 -0.25 136.95 0.10Q135.42 0.45 133.63 0.45Z M149.92 0.44Q148.26 0.44 147.31 -0.20Q146.36 -0.84 145.97 -1.87Q145.58 -2.91 145.58 -4.04V-16.33H143.14V-19.53H145.66L146.37 -24.97H149.44V-19.53H152.96V-16.33H149.44V-4.50Q149.44 -3.64 149.81 -3.20Q150.18 -2.75 151.05 -2.75H152.96V-0.14Q152.59 0.02 152.07 0.14Q151.54 0.27 150.98 0.35Q150.41 0.44 149.92 0.44Z M163.65 0.45Q160.65 0.45 158.62 -0.65Q156.59 -1.74 155.57 -4.01Q154.54 -6.27 154.54 -9.76Q154.54 -13.29 155.57 -15.53Q156.59 -17.78 158.63 -18.88Q160.68 -19.97 163.72 -19.97Q166.51 -19.97 168.39 -18.91Q170.28 -17.85 171.23 -15.71Q172.19 -13.56 172.19 -10.27V-8.80H158.51Q158.57 -6.70 159.13 -5.32Q159.69 -3.95 160.82 -3.29Q161.94 -2.64 163.71 -2.64Q164.77 -2.64 165.62 -2.92Q166.47 -3.19 167.07 -3.73Q167.68 -4.26 168.01 -5.03Q168.35 -5.79 168.36 -6.74H172.14Q172.13 -5.03 171.53 -3.69Q170.93 -2.35 169.81 -1.44Q168.69 -0.52 167.13 -0.04Q165.57 0.45 163.65 0.45Z M158.57 -11.61H168.17Q168.17 -13.05 167.84 -14.04Q167.51 -15.04 166.92 -15.67Q166.33 -16.30 165.51 -16.58Q164.69 -16.86 163.68 -16.86Q162.09 -16.86 160.99 -16.30Q159.90 -15.74 159.32 -14.58Q158.74 -13.42 158.57 -11.61Z M180.41 0.00 173.17 -19.53H177.23L180.59 -10.22Q180.83 -9.55 181.15 -8.50Q181.48 -7.44 181.82 -6.32Q182.16 -5.21 182.40 -4.32H182.58Q182.82 -5.15 183.14 -6.25Q183.45 -7.35 183.79 -8.43Q184.13 -9.50 184.39 -10.22L187.72 -19.53H191.64L184.37 0.00Z M201.66 0.45Q198.66 0.45 196.63 -0.65Q194.60 -1.74 193.58 -4.01Q192.55 -6.27 192.55 -9.76Q192.55 -13.29 193.58 -15.53Q194.60 -17.78 196.64 -18.88Q198.69 -19.97 201.73 -19.97Q204.52 -19.97 206.40 -18.91Q208.29 -17.85 209.24 -15.71Q210.20 -13.56 210.20 -10.27V-8.80H196.52Q196.58 -6.70 197.14 -5.32Q197.70 -3.95 198.83 -3.29Q199.96 -2.64 201.72 -2.64Q202.78 -2.64 203.63 -2.92Q204.48 -3.19 205.09 -3.73Q205.69 -4.26 206.03 -5.03Q206.36 -5.79 206.37 -6.74H210.15Q210.15 -5.03 209.54 -3.69Q208.94 -2.35 207.82 -1.44Q206.70 -0.52 205.14 -0.04Q203.58 0.45 201.66 0.45Z M196.58 -11.61H206.18Q206.18 -13.05 205.85 -14.04Q205.52 -15.04 204.93 -15.67Q204.34 -16.30 203.52 -16.58Q202.71 -16.86 201.69 -16.86Q200.10 -16.86 199.00 -16.30Q197.91 -15.74 197.33 -14.58Q196.75 -13.42 196.58 -11.61Z M211.87 0.00V-1.93L222.27 -16.33H212.58V-19.53H227.85V-17.65L217.42 -3.20H228.36V0.00Z" fill="#17231c"/><g transform="translate(165.15 -21.94) scale(1.0) translate(-165.15 21.94)"><path d="M161.49 -21.94 164.60 -26.84H168.78L168.81 -26.73L164.76 -21.94Z" fill="#526f3c"/></g></g></svg>
