<svg xmlns="http://www.w3.org/2000/svg" viewBox="1.33 -71.93 168.21 72.56"><g transform="translate(0.86 -64.12)"><path d="M0.47 0.00H4.13Q5.68 0.00 6.32 -0.86Q6.97 -1.71 6.97 -3.90Q6.97 -6.09 6.33 -6.94Q5.69 -7.80 4.13 -7.80H0.47Z M2.06 -1.09V-6.70H3.70Q4.55 -6.70 4.96 -6.22Q5.37 -5.74 5.37 -3.90Q5.37 -2.06 4.96 -1.58Q4.55 -1.09 3.70 -1.09Z M9.66 0.00H11.31L11.91 -2.02H14.77L15.37 0.00H17.02L14.47 -7.81H12.21Z M12.18 -3.08 13.34 -6.87H13.35L14.51 -3.08Z M21.46 0.00H23.64L26.00 -7.80H24.38L22.56 -1.13H22.55L20.72 -7.80H19.10Z M29.72 0.00H31.31V-7.80H29.72Z M35.28 0.00H38.94Q40.49 0.00 41.13 -0.86Q41.77 -1.71 41.77 -3.90Q41.77 -6.09 41.13 -6.94Q40.49 -7.80 38.94 -7.80H35.28Z M36.87 -1.09V-6.70H38.51Q39.36 -6.70 39.77 -6.22Q40.18 -5.74 40.18 -3.90Q40.18 -2.06 39.77 -1.58Q39.36 -1.09 38.51 -1.09Z" fill="#526f3c"/></g><path d="M2.38 0.00Q1.33 0.00 1.33 -0.77Q1.33 -1.40 2.24 -1.61L3.85 -1.89Q5.32 -2.17 5.78 -2.66Q6.23 -3.15 6.23 -4.62V-45.78Q6.23 -47.25 5.78 -47.74Q5.32 -48.23 3.85 -48.51L2.24 -48.79Q1.33 -49.00 1.33 -49.63Q1.33 -50.40 2.38 -50.40H25.90Q27.51 -50.40 27.65 -48.79L28.21 -37.17Q28.35 -35.98 27.30 -35.98Q26.46 -35.98 26.32 -36.89L25.90 -39.48Q25.13 -44.24 22.75 -46.45Q20.37 -48.65 16.17 -48.65Q13.37 -48.65 12.29 -47.85Q11.20 -47.04 11.20 -45.01V-28.14Q11.20 -27.16 12.18 -27.16H15.68Q18.76 -27.16 19.46 -30.45L20.16 -33.95Q20.44 -35.00 21.35 -34.86Q22.12 -34.72 22.12 -33.67V-17.92Q22.12 -16.87 21.35 -16.73Q20.44 -16.59 20.16 -17.64L19.46 -21.07Q18.97 -23.52 18.10 -24.29Q17.22 -25.06 15.61 -25.06H12.18Q11.20 -25.06 11.20 -24.08V-6.51Q11.20 -3.99 12.50 -2.87Q13.79 -1.75 17.22 -1.75Q20.72 -1.75 23.21 -3.54Q25.69 -5.32 26.67 -10.22L27.51 -14.35Q27.72 -15.26 28.56 -15.26Q29.54 -15.26 29.40 -14.07L28.70 -1.61Q28.56 0.00 26.95 0.00Z M40.53 0.63Q38.92 0.63 37.10 0.25Q35.28 -0.14 34.16 -0.70Q33.53 -1.05 33.53 -1.89L33.32 -9.73Q33.32 -10.92 34.23 -10.92Q35.00 -10.92 35.28 -9.80Q36.47 -4.83 38.19 -3.01Q39.90 -1.19 42.35 -1.19Q44.38 -1.19 45.71 -2.77Q47.04 -4.34 47.04 -7.14Q47.04 -9.94 45.50 -12.11Q43.96 -14.28 40.32 -16.87Q36.68 -19.32 35.00 -21.80Q33.32 -24.29 33.32 -27.23Q33.32 -31.22 36.12 -33.67Q38.92 -36.12 43.54 -36.12Q44.94 -36.12 46.27 -35.81Q47.60 -35.49 48.65 -34.79Q49.28 -34.37 49.28 -33.67L49.42 -25.97Q49.42 -24.92 48.58 -24.92Q48.09 -24.92 47.88 -25.23Q47.67 -25.55 47.53 -26.04Q46.13 -30.59 44.73 -32.38Q43.33 -34.16 41.30 -34.16Q39.48 -34.16 38.29 -32.90Q37.10 -31.64 37.10 -29.75Q37.10 -27.30 38.57 -25.48Q40.04 -23.66 43.89 -21.00Q47.39 -18.48 49.18 -15.58Q50.96 -12.67 50.96 -9.24Q50.96 -4.76 48.09 -2.07Q45.22 0.63 40.53 0.63Z M62.86 0.63Q60.41 0.63 58.84 -1.08Q57.26 -2.80 57.26 -6.72V-32.90Q57.26 -33.74 56.42 -33.74H54.39Q53.27 -33.74 53.27 -34.58Q53.27 -35.14 53.90 -35.56Q56.21 -37.17 57.61 -39.03Q59.01 -40.88 60.06 -44.10Q60.55 -45.57 61.25 -45.57Q62.02 -45.57 62.02 -44.45V-36.68Q62.02 -35.70 63.00 -35.70H67.55Q68.67 -35.70 68.67 -34.72Q68.67 -33.74 67.55 -33.74H63.00Q62.02 -33.74 62.02 -32.76V-6.65Q62.02 -5.11 62.51 -4.24Q63.00 -3.36 64.33 -3.36Q65.80 -3.36 66.75 -4.83Q67.69 -6.30 67.97 -9.59Q68.11 -10.57 68.88 -10.57Q69.72 -10.57 69.72 -9.52Q69.51 -4.13 67.52 -1.75Q65.52 0.63 62.86 0.63Z M83.79 0.63Q80.43 0.63 77.77 -1.61Q75.11 -3.85 73.54 -7.95Q71.96 -12.04 71.96 -17.43Q71.96 -22.96 73.57 -27.16Q75.18 -31.36 77.98 -33.74Q80.78 -36.12 84.21 -36.12Q88.34 -36.12 90.90 -32.73Q93.45 -29.33 93.45 -21.70Q93.45 -19.39 91.70 -19.39H78.40Q77.00 -19.39 77.00 -17.78Q77.00 -10.36 79.17 -6.65Q81.34 -2.94 84.70 -2.94Q87.36 -2.94 89.04 -4.83Q90.72 -6.72 91.77 -11.20Q91.98 -11.97 92.68 -11.97Q93.52 -11.97 93.31 -10.57Q92.19 -4.34 89.74 -1.86Q87.29 0.63 83.79 0.63Z M78.19 -21.14H85.26Q88.62 -21.14 88.62 -24.64Q88.62 -29.19 87.50 -31.78Q86.38 -34.37 84.14 -34.37Q81.41 -34.37 79.56 -31.22Q77.70 -28.07 77.14 -22.26Q77.00 -21.14 78.19 -21.14Z M108.43 0.63Q107.80 0.63 107.52 -0.14L98.21 -31.01Q97.72 -32.69 97.27 -33.18Q96.81 -33.67 95.83 -33.88L94.78 -34.09Q93.87 -34.30 93.87 -35.00Q93.87 -35.70 94.85 -35.70H106.40Q107.38 -35.70 107.38 -35.00Q107.38 -34.23 106.47 -34.09L105.35 -33.95Q103.67 -33.74 103.25 -33.15Q102.83 -32.55 103.25 -31.01L109.06 -10.78Q109.27 -10.01 109.76 -10.01Q110.25 -10.01 110.46 -10.78L116.13 -29.75Q116.69 -31.64 116.45 -32.59Q116.20 -33.53 114.45 -33.81L112.98 -34.09Q112.07 -34.30 112.07 -35.00Q112.07 -35.70 113.05 -35.70H121.94Q122.92 -35.70 122.92 -34.93Q122.92 -34.23 122.08 -33.95L121.45 -33.74Q120.40 -33.39 119.67 -32.48Q118.93 -31.57 118.23 -29.33L109.34 -0.14Q109.06 0.63 108.43 0.63Z M134.61 0.63Q131.25 0.63 128.59 -1.61Q125.93 -3.85 124.36 -7.95Q122.78 -12.04 122.78 -17.43Q122.78 -22.96 124.39 -27.16Q126.00 -31.36 128.80 -33.74Q131.60 -36.12 135.03 -36.12Q139.16 -36.12 141.72 -32.73Q144.27 -29.33 144.27 -21.70Q144.27 -19.39 142.52 -19.39H129.22Q127.82 -19.39 127.82 -17.78Q127.82 -10.36 129.99 -6.65Q132.16 -2.94 135.52 -2.94Q138.18 -2.94 139.86 -4.83Q141.54 -6.72 142.59 -11.20Q142.80 -11.97 143.50 -11.97Q144.34 -11.97 144.13 -10.57Q143.01 -4.34 140.56 -1.86Q138.11 0.63 134.61 0.63Z M129.01 -21.14H136.08Q139.44 -21.14 139.44 -24.64Q139.44 -29.19 138.32 -31.78Q137.20 -34.37 134.96 -34.37Q132.23 -34.37 130.38 -31.22Q128.52 -28.07 127.96 -22.26Q127.82 -21.14 129.01 -21.14Z M147.77 0.00Q146.72 0.00 146.72 -0.91Q146.72 -1.19 146.93 -1.61Q147.14 -2.03 147.42 -2.66L163.10 -32.48Q163.45 -33.04 163.21 -33.46Q162.96 -33.88 162.26 -33.88H159.32Q155.89 -33.88 154.25 -32.69Q152.60 -31.50 151.55 -29.26L150.01 -26.04Q149.59 -25.13 148.96 -25.13Q148.05 -25.13 148.26 -26.18L149.94 -35.70Q150.22 -37.38 151.20 -37.38Q151.83 -37.38 151.97 -36.96Q152.11 -36.54 152.50 -36.12Q152.88 -35.70 154.21 -35.70H168.21Q169.26 -35.70 169.26 -34.79Q169.26 -34.51 169.09 -34.09Q168.91 -33.67 168.56 -33.04L152.95 -3.22Q152.67 -2.66 152.85 -2.24Q153.02 -1.82 153.79 -1.82H156.94Q161.07 -1.82 162.75 -2.98Q164.43 -4.13 165.48 -6.72L167.58 -11.83Q168.00 -12.74 168.63 -12.74Q169.54 -12.74 169.33 -11.55L167.51 -1.26Q167.30 0.00 166.04 0.00Z" fill="#17231c"/><g fill="#526f3c"><g transform="translate(83.69 -40.53) scale(1.12) translate(-83.69 40.53)"><path d="M77.42 -41.02Q76.23 -40.53 75.81 -41.30Q75.32 -42.07 76.44 -42.84L86.52 -50.68Q87.22 -51.24 87.85 -51.52Q88.48 -51.80 89.39 -51.80Q90.65 -51.80 91.35 -51.07Q92.05 -50.33 92.05 -49.49Q92.05 -48.58 91.60 -47.92Q91.14 -47.25 89.88 -46.69Z"/></g></g></svg>
